<?xml version="1.0" encoding="UTF-8"?>
<svg id="Camada_2" data-name="Camada 2" xmlns="http://www.w3.org/2000/svg" viewBox="0 0 36.31 31.04">
  <defs>
    <style>
      .cls-1 {
        fill: #9688cc;
      }

      .cls-2 {
        fill: #e2fe26;
      }
    </style>
  </defs>
  <g id="Camada_1-2" data-name="Camada 1">
    <g>
      <path class="cls-2" d="M34.22,1.41H11.01c-1.12,0-2.14.59-2.72,1.5-.13.2-.23.41-.31.64-.03.09-.06.18-.08.27l-.09.34L1.28,28.39h0,0c-.55,2.01,1.83,3.46,3.36,2.15,0,0,0,0,0,0,0,0,.01,0,.02-.01.03-.02.05-.05.08-.07l7.44-7.19h.02s0-.02,0-.02l.7-.69,2.02-1.96c.21-.2.49-.32.79-.32h5.83c-.32.32-.64.63-.95.95-.64.65-.64,1.61,0,2.24.32.32.71.47,1.11.47.26,0,.51-.06.75-.19.02-.01.04-.02.06-.04.04-.03.08-.05.12-.08.07-.05.14-.11.2-.17l4.1-4.1c.62-.63.63-1.6.01-2.23-1.31-1.33-2.7-2.72-4.12-4.13-.31-.3-.71-.47-1.13-.47-.42,0-.82.17-1.12.48-.19.19-.31.41-.38.64-.1.32-.1.66.02.98.07.22.2.42.37.6.14.15.29.3.44.44l.17.17c.08.08.17.17.25.25h-6.74c-.72,0-1.41.28-1.91.79l-.83.83-.82.82h0s-.69.69-.69.69l-1.25,1.25s-.1.09-.15.12c-.03.02-.06.03-.08.04-.02,0-.03.01-.05.02-.54.2-1.17-.28-1-.92l3.06-11.43.2-.73.12-.45c.03-.11.07-.22.12-.32.33-.74,1.07-1.22,1.9-1.22h20.93c.28,0,.54-.06.79-.16.75-.32,1.28-1.06,1.28-1.92,0-1.15-.93-2.09-2.09-2.09Z"/>
      <path class="cls-1" d="M2.49,30.35c-.45,0-.91-.13-1.32-.39-.79-.5-1.21-1.36-1.13-2.26h-.04l.12-.45L6.73,2.67c.03-.1.06-.2.09-.3.08-.24.2-.49.34-.7.66-1.05,1.78-1.67,3.02-1.67h23.22c1.35,0,2.45,1.1,2.45,2.45,0,.99-.59,1.87-1.5,2.26-.29.12-.6.19-.92.19H12.49c-.68,0-1.29.4-1.57,1.01-.04.08-.07.17-.1.27l-3.38,12.61c-.06.21.05.34.11.4.12.1.28.14.41.09l.25.27-.19-.31s.05-.04.08-.07l3.59-3.59c.58-.58,1.35-.89,2.16-.89h5.88c-.08-.08-.17-.17-.25-.25-.2-.22-.35-.46-.45-.73-.14-.39-.15-.81-.02-1.2.09-.29.25-.56.47-.78.37-.38.86-.59,1.37-.59.55-.01,1.01.2,1.39.57,1.42,1.41,2.81,2.8,4.13,4.13.75.76.75,1.96-.01,2.73l-4.1,4.1c-.08.08-.16.15-.24.21-.03.03-.08.06-.14.09-.02.02-.06.03-.09.05-.71.39-1.67.26-2.28-.34-.78-.77-.78-1.96,0-2.75.11-.11.23-.23.34-.34h-4.96c-.2,0-.39.08-.54.22l-10.36,10.05h-.05c-.44.34-.95.51-1.46.51ZM.93,26.98h.01l-.13.46c-.25.91.22,1.58.74,1.91.49.31,1.32.47,2.02-.12l.09-.07,10.22-9.88c.28-.27.65-.42,1.04-.42h6.7l-.62.61c-.32.31-.63.63-.95.95-.5.51-.5,1.24,0,1.74.39.39.98.47,1.44.22.08-.05.1-.06.13-.08.07-.05.12-.1.17-.14l4.1-4.1c.48-.48.49-1.24.01-1.72-1.31-1.33-2.7-2.71-4.12-4.12-.24-.24-.54-.36-.87-.36h0c-.32,0-.63.14-.87.37-.14.14-.24.31-.3.5-.08.24-.07.51.01.75.06.18.16.34.29.48.14.15.29.29.43.43l1.03,1.03h-7.62c-.62,0-1.21.24-1.65.68l-3.59,3.59c-.07.07-.14.13-.22.17-.03.02-.07.04-.1.05l-.11.05c-.37.14-.81.05-1.13-.24-.31-.28-.43-.7-.32-1.12l3.38-12.61c.03-.13.08-.26.13-.38.4-.87,1.27-1.44,2.23-1.44h20.93c.22,0,.44-.05.65-.13.64-.27,1.06-.9,1.06-1.59,0-.95-.78-1.73-1.73-1.73H10.19c-.99,0-1.89.5-2.41,1.33-.11.17-.2.36-.27.56-.03.08-.06.16-.07.24l-.09.34L.93,26.98Z"/>
    </g>
  </g>
</svg>